# xmcd CD database file
#
# Track frame offsets:
#	150
#	12445
#	25478
#	43010
#	54378
#	77150
#	89636
#	103366
#	117005
#	132004
#	141241
#	154778
#	169077
#	191668
#	203910
#	231352
#
# Disc length: 3279 seconds
#
# Revision: 1
# Processed by: cddbd v1.5.2PL0 Copyright (c) Steve Scherf et al.
# Submitted via: CDex 1.51
#
DISCID=e00ccd10
DTITLE=Les Nuits Manouches - Nothing but Django 1
DYEAR=2008
DGENRE=Jazz
TTITLE0=Tchavolo Schmitt - Chez Jacquet
TTITLE1=Biréli Lagreène - Djangology
TTITLE2=Angelo Debarre - Ludovic Beier - Oriental Shuffle
TTITLE3=Raphael Fays - Swing Guitars
TTITLE4=Dorado Schmitt - Pierre Blanchard - Tears
TTITLE5=Raphael Fays - Sweet Chorus
TTITLE6=Les Pommes de ma douche - Daphné
TTITLE7=Raphael Fays - Improvisation no 1
TTITLE8=Angelo Debarre - Ludovic Beier - Minor Swing
TTITLE9=Raphael Fays - Bricktop
TTITLE10=Tchavolo Schmitt - Stompin' At Decca
TTITLE11=Angelo Debarre - Ludovic Beier - Hungaria
TTITLE12=Tchavolo Schmitt - Appel direct - indirect
TTITLE13=Florin Niculescu - Mélodie au crépuscule
TTITLE14=Angelo Debarre - Ludovic Beier - Reverie
TTITLE15=Les Pommes de ma douche - Swing 39
EXTD=YEAR: 2008
EXTT0=
EXTT1=
EXTT2=
EXTT3=
EXTT4=
EXTT5=
EXTT6=
EXTT7=
EXTT8=
EXTT9=
EXTT10=
EXTT11=
EXTT12=
EXTT13=
EXTT14=
EXTT15=
PLAYORDER=
